<svg width="68" height="68" viewBox="0 0 68 68" fill="none" xmlns="http://www.w3.org/2000/svg">
<g filter="url(#filter0_d_545_6181)">
<path d="M2 13C2 6.37258 7.37258 1 14 1H54C60.6274 1 66 6.37258 66 13V53C66 59.6274 60.6274 65 54 65H14C7.37258 65 2 59.6274 2 53V13Z" fill="white" shape-rendering="crispEdges"/>
<path d="M14 1.5H54C60.3513 1.5 65.5 6.64873 65.5 13V53C65.5 59.3513 60.3513 64.5 54 64.5H14C7.64873 64.5 2.5 59.3513 2.5 53V13C2.5 6.64873 7.64873 1.5 14 1.5Z" stroke="#EAECF0" shape-rendering="crispEdges"/>
<path d="M17.6666 33C17.6666 23.9794 24.9793 16.6667 34 16.6667M44.4997 22.5L33.9997 33M57.3333 33C57.3333 45.8867 46.8866 56.3334 34 56.3334C21.1133 56.3334 10.6666 45.8867 10.6666 33C10.6666 20.1134 21.1133 9.66669 34 9.66669C46.8866 9.66669 57.3333 20.1134 57.3333 33ZM36.3333 33C36.3333 34.2887 35.2886 35.3334 34 35.3334C32.7113 35.3334 31.6666 34.2887 31.6666 33C31.6666 31.7114 32.7113 30.6667 34 30.6667C35.2886 30.6667 36.3333 31.7114 36.3333 33Z" stroke="black" stroke-width="2" stroke-linecap="round" stroke-linejoin="round"/>
</g>
<defs>
<filter id="filter0_d_545_6181" x="0" y="0" width="68" height="68" filterUnits="userSpaceOnUse" color-interpolation-filters="sRGB">
<feFlood flood-opacity="0" result="BackgroundImageFix"/>
<feColorMatrix in="SourceAlpha" type="matrix" values="0 0 0 0 0 0 0 0 0 0 0 0 0 0 0 0 0 0 127 0" result="hardAlpha"/>
<feOffset dy="1"/>
<feGaussianBlur stdDeviation="1"/>
<feComposite in2="hardAlpha" operator="out"/>
<feColorMatrix type="matrix" values="0 0 0 0 0.0627451 0 0 0 0 0.0941176 0 0 0 0 0.156863 0 0 0 0.05 0"/>
<feBlend mode="normal" in2="BackgroundImageFix" result="effect1_dropShadow_545_6181"/>
<feBlend mode="normal" in="SourceGraphic" in2="effect1_dropShadow_545_6181" result="shape"/>
</filter>
</defs>
</svg>
